<?xml version="1.0" encoding="UTF-8" standalone="no"?>
<svg
   xmlns:dc="http://purl.org/dc/elements/1.1/"
   xmlns:cc="http://creativecommons.org/ns#"
   xmlns:rdf="http://www.w3.org/1999/02/22-rdf-syntax-ns#"
   xmlns:svg="http://www.w3.org/2000/svg"
   xmlns="http://www.w3.org/2000/svg"
   xmlns:sodipodi="http://sodipodi.sourceforge.net/DTD/sodipodi-0.dtd"
   xmlns:inkscape="http://www.inkscape.org/namespaces/inkscape"
   width="71.802948mm"
   height="66.027443mm"
   viewBox="0 0 71.802948 66.027443"
   version="1.1"
   id="svg15236"
   inkscape:version="1.0.2 (e86c870879, 2021-01-15)"
   sodipodi:docname="champignon.svg">
  <defs
     id="defs15230" />
  <sodipodi:namedview
     id="base"
     pagecolor="#ffffff"
     bordercolor="#666666"
     borderopacity="1.0"
     inkscape:pageopacity="0.0"
     inkscape:pageshadow="2"
     inkscape:zoom="0.38402778"
     inkscape:cx="135.6906"
     inkscape:cy="124.77628"
     inkscape:document-units="mm"
     inkscape:current-layer="layer1"
     inkscape:document-rotation="0"
     showgrid="false"
     inkscape:window-width="1271"
     inkscape:window-height="2118"
     inkscape:window-x="4481"
     inkscape:window-y="34"
     inkscape:window-maximized="1" />
  <metadata
     id="metadata15233">
    <rdf:RDF>
      <cc:Work
         rdf:about="">
        <dc:format>image/svg+xml</dc:format>
        <dc:type
           rdf:resource="http://purl.org/dc/dcmitype/StillImage" />
        <dc:title></dc:title>
      </cc:Work>
    </rdf:RDF>
  </metadata>
  <g
     inkscape:label="Layer 1"
     inkscape:groupmode="layer"
     id="layer1"
     transform="translate(-69.931863,-115.15294)">
    <g
       id="g6062"
       transform="matrix(1.4911731,0,0,1.4911731,126.60553,-13.87903)"
       style="stroke-width:0.222287;stroke-miterlimit:4;stroke-dasharray:none">
      <path
         style="fill:#8f5f34;fill-opacity:1;stroke:#000000;stroke-width:0.222287;stroke-linecap:butt;stroke-linejoin:miter;stroke-miterlimit:4;stroke-dasharray:none;stroke-opacity:1"
         d="m -24.107931,121.39393 2.239909,1.17415 2.876642,-1.17004 -0.898423,-14.94277 z"
         id="path5888" />
      <path
         style="fill:#ebdacb;fill-opacity:1;stroke:#000000;stroke-width:0.222287;stroke-linecap:butt;stroke-linejoin:miter;stroke-miterlimit:4;stroke-dasharray:none;stroke-opacity:1"
         d="m -17.519911,130.6342 c 9.4915121,0.15928 16.58916466,-0.27544 17.99037636,-2.12365 l -7.08883766,-7.82404 -11.0350417,2.50818 0.0085,2.44925"
         id="path5892"
         sodipodi:nodetypes="ccccc" />
      <path
         style="fill:#e0c4ac;fill-opacity:1;stroke:#000000;stroke-width:0.222287;stroke-linecap:butt;stroke-linejoin:miter;stroke-miterlimit:4;stroke-dasharray:none;stroke-opacity:1"
         d="m -17.531334,130.6407 c -5.637349,-11.37842 -4.870769,-17.18601 -7.242456,-25.59697 l 25.72996402,-1.9789 -3.07283782,12.99797 c 0.2914968,3.21307 0.4457582,6.57421 0.9921303,9.51226 0.45108719,1.02083 0.95475209,2.00251 1.65274266,2.83949 -1.52773575,-0.66966 -2.89633706,-1.62472 -4.59242366,-2.00604 -1.6838402,0.36446 -2.1002452,0.39123 -3.1324889,0.57504 -1.3612507,0.19248 -3.7862766,0.40682 -5.8235166,0.4056 -1.528039,0.74309 -3.009804,2.13416 -4.511114,3.25155 z"
         id="path5890"
         sodipodi:nodetypes="cccccccccc" />
      <path
         style="fill:#eeddcf;fill-opacity:1;stroke:#000000;stroke-width:0.222287;stroke-linecap:butt;stroke-linejoin:miter;stroke-miterlimit:4;stroke-dasharray:none;stroke-opacity:1"
         d="m -31.701472,115.06427 0.392194,5.24654 c 1.800622,0.68489 1.712791,1.52168 6.419304,1.97283 1.683091,-0.66745 1.572446,-1.73606 2.095155,-2.66302 1.67341,-0.5666 3.073678,-1.92315 5.042656,-1.63494 4.969548,-0.0544 9.2291846,-0.62849 13.5908541,1.29032 2.9989615,-0.52917 2.8420792,-2.11719 4.94154088,-2.752 -1.96027858,-1.12381 -1.93419368,-1.0404 -1.13100478,-2.79314 l 5.0967985,-1.61766 2.0515638,-5.72096 -20.0769835,-1.493"
         id="path5886"
         sodipodi:nodetypes="ccccccccccc" />
      <path
         id="path5883"
         style="opacity:1;vector-effect:none;fill:#d5ae8b;fill-opacity:1;fill-rule:evenodd;stroke:#000000;stroke-width:0.22229;stroke-linecap:butt;stroke-linejoin:miter;stroke-miterlimit:4;stroke-dasharray:none;stroke-dashoffset:0;stroke-opacity:1"
         d="m -30.890343,87.71244 c 1.714686,5.546548 -0.236664,14.36519 -4.582815,16.95807 -2.698885,1.61013 -5.822194,-0.48894 -11.288915,-2.38541 -6.86567,-2.04645 -23.591268,0.41489 -30.133013,-4.205736 -1.235584,-0.948356 -2.569697,-4.1879 -2.569696,-5.934032 5e-6,-7.541219 9.479654,-18.579437 22.973097,-18.579437 13.493443,0 23.378771,6.957127 25.601342,14.146545 z"
         sodipodi:nodetypes="ssccsss"
         transform="matrix(0.92218607,-0.38674649,0.39373095,0.91922573,0,0)" />
      <path
         style="fill:#4c311a;fill-opacity:0.542273;stroke:none;stroke-width:0.222287;stroke-linecap:butt;stroke-linejoin:miter;stroke-miterlimit:4;stroke-dasharray:none;stroke-opacity:1"
         d="m -29.910907,110.12994 c 0.328997,1.10206 1.045781,2.4588 0.951179,3.28265 0.493874,-0.0106 1.921884,0.59194 3.044186,0.99382 -1.375284,-1.02265 -2.792672,-1.65535 -3.995365,-4.27647 z"
         id="path6018"
         sodipodi:nodetypes="cccc" />
      <path
         style="fill:#4c311a;fill-opacity:0.542273;stroke:none;stroke-width:0.222287;stroke-linecap:butt;stroke-linejoin:miter;stroke-miterlimit:4;stroke-dasharray:none;stroke-opacity:1"
         d="m -19.118431,106.49716 c -1.150078,0.01 -2.652562,0.32135 -3.417679,0.002 -0.127053,0.47737 -1.102674,1.68171 -1.800588,2.64814 1.364534,-1.03695 2.366175,-2.22271 5.218267,-2.64969 z"
         id="path6020"
         sodipodi:nodetypes="cccc" />
      <path
         style="fill:#4c311a;fill-opacity:0.542273;stroke:none;stroke-width:0.222287;stroke-linecap:butt;stroke-linejoin:miter;stroke-miterlimit:4;stroke-dasharray:none;stroke-opacity:1"
         d="m -36.569252,112.49014 c -0.158123,0.48787 -0.09387,1.14546 -0.495058,1.44791 0.414953,0.0862 1.366584,0.58118 2.142581,0.94238 -0.439089,-0.38311 -5.99e-4,-1.29892 -0.334491,-1.76246 -0.231183,-0.32095 -1.323659,-0.12166 -1.312623,-0.6278 z"
         id="path6022"
         sodipodi:nodetypes="cccscc" />
      <path
         style="fill:#4c311a;fill-opacity:0.542273;stroke:none;stroke-width:0.222287;stroke-linecap:butt;stroke-linejoin:miter;stroke-miterlimit:4;stroke-dasharray:none;stroke-opacity:1"
         d="m -14.346712,108.91341 c -1.150078,0.01 5.428826,1.17348 4.663709,0.85413 -0.127053,0.47737 -9.184062,0.82958 -9.881976,1.79601 1.364534,-1.03695 2.366175,-2.22271 5.218267,-2.64969 z"
         id="path6024"
         sodipodi:nodetypes="ccccc" />
      <path
         style="fill:#4c311a;fill-opacity:0.542273;stroke:none;stroke-width:0.222287;stroke-linecap:butt;stroke-linejoin:miter;stroke-miterlimit:4;stroke-dasharray:none;stroke-opacity:1"
         d="m -7.3064196,106.12726 c 0.4456218,0.53188 -0.9741086,-2.74304 -0.9792729,-2.32714 0.4898805,-0.0319 4.2522182,4.1047 5.4111873,4.24468 -1.4771487,-0.43596 -2.9542887,-0.67516 -4.4314981,-1.91763 z"
         id="path6026"
         sodipodi:nodetypes="ccccc" />
      <path
         style="fill:#4c311a;fill-opacity:0.542273;stroke:none;stroke-width:0.222287;stroke-linecap:butt;stroke-linejoin:miter;stroke-miterlimit:4;stroke-dasharray:none;stroke-opacity:1"
         d="m 3.8029742,106.6138 c 2.5977963,-0.23309 -0.2542446,2.89975 -0.076669,2.52363 -0.458813,-0.17462 -2.161235,-5.50082 -3.15714733,-6.10989 1.16226993,1.01053 2.14442763,-0.2921 3.23340013,3.58617 z"
         id="path6028"
         sodipodi:nodetypes="ccccc" />
      <path
         style="fill:#4c311a;fill-opacity:0.542273;stroke:none;stroke-width:0.222287;stroke-linecap:butt;stroke-linejoin:miter;stroke-miterlimit:4;stroke-dasharray:none;stroke-opacity:1"
         d="m -7.5151229,95.381854 c -0.6359352,-0.958314 -1.716698,-2.04751 -1.8665774,-2.862939 -0.4693664,0.154012 -2.0109697,-0.0064 -3.2016677,-0.06391 1.613544,0.57766 3.1537754,0.770015 5.067868,2.927093 z"
         id="path6030"
         sodipodi:nodetypes="cccc" />
      <path
         style="fill:#4c311a;fill-opacity:0.542273;stroke:none;stroke-width:0.222287;stroke-linecap:butt;stroke-linejoin:miter;stroke-miterlimit:4;stroke-dasharray:none;stroke-opacity:1"
         d="m -12.176114,94.76622 c -1.108544,-0.306447 -2.638741,-0.419994 -3.286635,-0.937316 -0.253351,0.424074 -1.522382,1.313923 -2.459016,2.051342 1.596966,-0.622025 2.88591,-1.48686 5.745526,-1.113594 z"
         id="path6032"
         sodipodi:nodetypes="cccc" />
      <path
         style="fill:#4c311a;fill-opacity:0.542273;stroke:none;stroke-width:0.222287;stroke-linecap:butt;stroke-linejoin:miter;stroke-miterlimit:4;stroke-dasharray:none;stroke-opacity:1"
         d="m -18.720265,97.535826 c -1.108544,-0.306447 -2.638741,-0.419994 -3.286635,-0.937316 -0.253351,0.424074 -1.522382,1.313923 -2.459016,2.051342 1.596966,-0.622025 2.88591,-1.48686 5.745526,-1.113594 z"
         id="path6034"
         sodipodi:nodetypes="cccc"
         inkscape:transform-center-x="-6.1015247"
         inkscape:transform-center-y="-2.9614036" />
      <path
         style="fill:#4c311a;fill-opacity:0.542273;stroke:none;stroke-width:0.222287;stroke-linecap:butt;stroke-linejoin:miter;stroke-miterlimit:4;stroke-dasharray:none;stroke-opacity:1"
         d="m -19.625035,115.95972 c 0.445235,-0.47603 -2.18304,0.82312 -1.865111,0.88672 0.01745,-0.60814 -0.395048,-5.0689 -0.188853,-6.47801 -0.459959,1.76053 3.131279,3.94113 2.05393,5.59075 z"
         id="path6036"
         sodipodi:nodetypes="ccccc" />
      <path
         style="fill:#bd7941;fill-opacity:0.542273;stroke:none;stroke-width:0.222287;stroke-linecap:butt;stroke-linejoin:miter;stroke-miterlimit:4;stroke-dasharray:none;stroke-opacity:1"
         d="m -4.3266356,126.41038 c 0.445235,-0.47603 4.47703778,1.73037 4.79496678,1.79397 0.008959,-0.31223 -1.03507257,-2.10941 -4.75908488,-2.63721 -3.5292094,-0.50019 -10.7188153,1.96901 -10.6184873,1.28338 -0.459959,1.76053 -1.624071,2.09112 -2.70142,3.74074 1.504133,-0.72451 2.296056,-1.86252 3.541606,-2.5623 0.465998,-0.2618 0.870509,-0.73506 1.334611,-0.78105 2.124766,-0.21058 4.9066377,0.38277 8.4078084,-0.83753 z"
         id="path6038"
         sodipodi:nodetypes="ccsccssc" />
      <path
         style="fill:#4c311a;fill-opacity:0.542273;stroke:none;stroke-width:0.222287;stroke-linecap:butt;stroke-linejoin:miter;stroke-miterlimit:4;stroke-dasharray:none;stroke-opacity:1"
         d="m -12.844233,123.40483 c -0.03682,-1.04927 -0.912245,3.46231 -0.64669,3.16238 -0.427789,-0.6975 -3.938913,-5.18346 -4.815662,-6.99294 0.95567,2.49672 5.012843,0.73681 5.461938,3.83 z"
         id="path6040"
         sodipodi:nodetypes="ccccc" />
      <path
         style="fill:#4c311a;fill-opacity:0.542273;stroke:none;stroke-width:0.222287;stroke-linecap:butt;stroke-linejoin:miter;stroke-miterlimit:4;stroke-dasharray:none;stroke-opacity:1"
         d="m -8.0903061,122.4206 c 0.4456218,0.76707 -0.9741086,-3.95594 -0.9792729,-3.35614 0.4898805,-0.046 4.2522182,5.91969 5.4111873,6.12157 -1.4771487,-0.62873 -2.9542887,-0.9737 -4.4314981,-2.76556 z"
         id="path6042"
         sodipodi:nodetypes="ccccc" />
    </g>
  </g>
</svg>
