<?xml version="1.0" encoding="UTF-8" standalone="no"?>
<svg
   xmlns:dc="http://purl.org/dc/elements/1.1/"
   xmlns:cc="http://creativecommons.org/ns#"
   xmlns:rdf="http://www.w3.org/1999/02/22-rdf-syntax-ns#"
   xmlns:svg="http://www.w3.org/2000/svg"
   xmlns="http://www.w3.org/2000/svg"
   xmlns:sodipodi="http://sodipodi.sourceforge.net/DTD/sodipodi-0.dtd"
   xmlns:inkscape="http://www.inkscape.org/namespaces/inkscape"
   width="87.342667mm"
   height="60.592243mm"
   viewBox="0 0 87.342667 60.592243"
   version="1.1"
   id="svg4953"
   inkscape:version="1.0.2 (e86c870879, 2021-01-15)"
   sodipodi:docname="mozarella.svg">
  <defs
     id="defs4947" />
  <sodipodi:namedview
     id="base"
     pagecolor="#ffffff"
     bordercolor="#666666"
     borderopacity="1.0"
     inkscape:pageopacity="0.0"
     inkscape:pageshadow="2"
     inkscape:zoom="0.38402778"
     inkscape:cx="165.05701"
     inkscape:cy="114.50501"
     inkscape:document-units="mm"
     inkscape:current-layer="layer1"
     inkscape:document-rotation="0"
     showgrid="false"
     fit-margin-top="0"
     fit-margin-left="0"
     fit-margin-right="0"
     fit-margin-bottom="0"
     inkscape:window-width="1271"
     inkscape:window-height="2118"
     inkscape:window-x="4481"
     inkscape:window-y="34"
     inkscape:window-maximized="1" />
  <metadata
     id="metadata4950">
    <rdf:RDF>
      <cc:Work
         rdf:about="">
        <dc:format>image/svg+xml</dc:format>
        <dc:type
           rdf:resource="http://purl.org/dc/dcmitype/StillImage" />
        <dc:title></dc:title>
      </cc:Work>
    </rdf:RDF>
  </metadata>
  <g
     inkscape:label="Layer 1"
     inkscape:groupmode="layer"
     id="layer1"
     transform="translate(-62.161999,-117.87055)">
    <g
       id="g6717"
       transform="matrix(1.5898895,0,0,1.5898895,-257.26872,201.73714)">
      <g
         id="g6169"
         transform="translate(38.763341,-34.92924)">
        <path
           id="path6111"
           style="opacity:1;vector-effect:none;fill:#fcf7ea;fill-opacity:1;fill-rule:evenodd;stroke:#000000;stroke-width:0.47625;stroke-linecap:butt;stroke-linejoin:miter;stroke-miterlimit:4;stroke-dasharray:none;stroke-dashoffset:0;stroke-opacity:1"
           d="m 199.61959,-7.8853766 c 0.0256,3.2710889 -4.55366,15.8387995 -2.94913,21.9761286 1.28781,4.925876 -6.6029,5.541609 -11.5748,5.54161 -6.835,0 -13.46449,-1.883411 -17.6037,-5.695854 -3.41011,-3.140892 -5.10339,-7.9633317 -5.10339,-12.4364474 0,-9.9026237 11.39492,-19.0826466 23.86095,-19.0826456 12.46603,-10e-7 13.3476,6.821849 13.37007,9.6972084 z"
           sodipodi:nodetypes="sssssss" />
        <g
           id="g6220"
           transform="matrix(1.4097575,0,0,1.2168973,-71.379378,-3.2366083)">
          <path
             style="fill:#ffffff;fill-opacity:1;stroke:none;stroke-width:0.338798;stroke-linecap:round;stroke-linejoin:bevel;stroke-miterlimit:4;stroke-dasharray:none;stroke-opacity:1;stop-color:#000000"
             id="path6178"
             d="m 175.734,-8.2605902 c 0.41399,0.00199 0.82258,0.088285 1.22195,0.1861249 0.65482,0.1788498 1.28022,0.4402501 1.88076,0.7458875 0.59999,0.3263848 1.16547,0.709105 1.719,1.1032068 0.5865,0.4282556 1.135,0.8992184 1.65005,1.4046979 0.52905,0.5295982 0.87076,1.1894318 1.19677,1.8451781 0.25571,0.510125 0.46743,1.039092 0.67427,1.5688538 0.19667,0.5135802 0.33432,1.04598 0.43934,1.5832453 0.1339,0.6240702 0.17321,1.2604289 0.19848,1.8955367 4.5e-4,0.3988395 0.0431,0.7997961 -0.0132,1.1967908 -0.042,0.2916388 -0.065,0.3331117 -0.14839,0.6214787 -0.25646,0.7186551 -0.62484,1.3979527 -0.98603,2.0724255 -0.46173,0.8806955 -1.00569,1.7180915 -1.54332,2.5570555 -0.45789,0.736124 -1.037,1.389678 -1.6853,1.9765577 -0.41025,0.37137 -0.75659,0.637073 -1.18978,0.983096 -0.94902,0.747324 -1.89115,1.502142 -2.88246,2.197323 0.30946,-0.15306 -1.00612,0.60166 -0.75482,0.450892 0.18882,-0.113281 0.39218,-0.204994 0.57227,-0.33071 0.098,-0.06833 -0.21518,0.106379 -0.32389,0.157345 -0.15697,0.07357 -0.34717,0.154753 -0.50829,0.224536 -0.0609,0.02635 -0.12158,0.05269 -0.1824,0.07904 0,0 -0.86993,0.664336 -0.86993,0.664336 v 0 c 0.0625,-0.02779 0.12496,-0.05557 0.1874,-0.08337 1.00159,-0.437112 1.97066,-0.945089 2.87888,-1.54307 0.977,-0.69464 1.90485,-1.448396 2.84397,-2.189282 0.43293,-0.348787 0.78262,-0.619334 1.19225,-0.994183 0.65212,-0.5967717 1.23102,-1.2632567 1.69559,-2.0059787 0.54235,-0.842392 1.08927,-1.6840957 1.55275,-2.5699631 0.36397,-0.6822405 0.74679,-1.3652749 0.98916,-2.098001 0.0788,-0.2865663 0.1075,-0.3507351 0.14475,-0.6407566 0.0513,-0.4005646 0.007,-0.80494 0.003,-1.2066574 -0.028,-0.6401653 -0.0678,-1.2818315 -0.20241,-1.9110064 -0.1075,-0.5432847 -0.24222,-1.0830484 -0.44409,-1.6018821 -0.21134,-0.5308615 -0.42167,-1.0635453 -0.69267,-1.569701 -0.3387,-0.6616933 -0.67093,-1.3405366 -1.21042,-1.8769622 -0.52041,-0.5076266 -1.07208,-0.9824724 -1.6594,-1.4180787 -0.55485,-0.4002598 -1.12466,-0.786015 -1.72767,-1.1165626 -0.60206,-0.3120496 -1.23083,-0.5750318 -1.88409,-0.7721263 -0.39797,-0.1119874 -0.80749,-0.1904631 -1.22145,-0.2215213 0,0 -0.9106,0.6362022 -0.9106,0.6362022 z" />
          <path
             style="fill:#f5dab6;fill-opacity:0.694118;stroke:none;stroke-width:0.323026;stroke-linecap:round;stroke-linejoin:bevel;stroke-miterlimit:4;stroke-dasharray:none;stroke-opacity:1;stop-color:#000000"
             id="path6180"
             d="m 177.22989,-8.33318 c 0.38622,0.00194 0.7674,0.086029 1.13997,0.1813677 0.61089,0.1742785 1.19433,0.4289976 1.75458,0.7268231 0.55974,0.3180427 1.08728,0.6909808 1.60367,1.0750097 0.54716,0.4173097 1.05886,0.876235 1.53935,1.3687949 0.49356,0.516062 0.81234,1.1590308 1.11648,1.7980167 0.23855,0.4970866 0.43607,1.0125336 0.62903,1.5287551 0.18348,0.5004535 0.31189,1.01924555 0.40987,1.54277875 0.12491,0.60811943 0.16159,1.22821325 0.18516,1.84708815 4.2e-4,0.3886455 0.0402,0.7793539 -0.0123,1.1662017 -0.0392,0.2841848 -0.0606,0.3245977 -0.13844,0.6055942 -0.23925,0.7002868 -0.58292,1.3622221 -0.91987,2.0194559 -0.43076,0.8581855 -0.93822,1.6741783 -1.43978,2.491699 -0.42717,0.7173093 -0.96743,1.3541589 -1.57224,1.9260383 -0.38272,0.3618778 -0.70583,0.6207898 -1.10995,0.9579688 -0.88535,0.728223 -1.76428,1.463748 -2.68908,2.141161 0.2887,-0.149148 -0.93862,0.586282 -0.70418,0.439368 0.17615,-0.110386 0.36587,-0.199755 0.53388,-0.322258 0.0914,-0.06658 -0.20075,0.10366 -0.30216,0.153324 -0.14644,0.07169 -0.32388,0.150797 -0.47419,0.218797 -0.0568,0.02568 -0.11342,0.05134 -0.17016,0.07702 0,0 -0.81157,0.647356 -0.81157,0.647356 v 0 c 0.0583,-0.02708 0.11658,-0.05415 0.17483,-0.08124 0.93439,-0.425939 1.83845,-0.920933 2.68573,-1.50363 0.91146,-0.676885 1.77706,-1.411376 2.65317,-2.133325 0.40389,-0.339873 0.73012,-0.6035047 1.11226,-0.9687728 0.60837,-0.5815186 1.14843,-1.2309687 1.58184,-1.9547073 0.50596,-0.8208611 1.01619,-1.6410515 1.44857,-2.5042768 0.33955,-0.6648029 0.69669,-1.3303795 0.9228,-2.0443777 0.0735,-0.2792418 0.10029,-0.3417705 0.13504,-0.6243793 0.0479,-0.3903265 0.007,-0.7843663 0.003,-1.1758161 -0.0261,-0.62380316 -0.0633,-1.24906885 -0.18883,-1.86216251 -0.10029,-0.52939879 -0.22597,-1.05536649 -0.4143,-1.56093919 -0.19716,-0.5172931 -0.39338,-1.0363619 -0.6462,-1.5295807 -0.31598,-0.6447809 -0.62592,-1.3062735 -1.12921,-1.8289884 -0.4855,-0.4946521 -1.00016,-0.9573612 -1.54807,-1.3818337 -0.51763,-0.3900295 -1.04921,-0.765925 -1.61176,-1.0880241 -0.56167,-0.3040738 -1.14826,-0.5603344 -1.75769,-0.7523913 -0.37127,-0.1091251 -0.75331,-0.185595 -1.1395,-0.2158594 0,0 -0.84951,0.6199413 -0.84951,0.6199413 z" />
        </g>
        <path
           id="path6114"
           style="opacity:1;vector-effect:none;fill:#fefefe;fill-opacity:0.999631;fill-rule:evenodd;stroke:#000000;stroke-width:0.481197;stroke-linecap:butt;stroke-linejoin:miter;stroke-miterlimit:4;stroke-dasharray:none;stroke-dashoffset:0;stroke-opacity:1"
           d="m 201.84334,3.7810339 c 0,5.5626093 -0.86622,8.8634831 -3.04686,11.3508631 -1.57944,1.801617 -3.88316,3.949416 -6.51396,3.949415 -2.18521,-1e-6 -3.38032,0.241835 -4.83109,-0.634519 -2.70723,-1.635339 -4.83612,-6.049503 -4.83612,-12.2945159 0,-4.024406 -0.0215,-6.36438945 1.11711,-10.2936709 1.57516,-5.4356241 4.94636,-11.8531882 8.58155,-11.8531902 4.25202,-2e-6 7.67059,3.48378 9.11356,9.5107949 0.68244,2.8504347 0.41581,7.18507683 0.41581,10.264823 z"
           sodipodi:nodetypes="sssssssss" />
        <g
           id="g6200"
           transform="matrix(0.50336605,0,0,0.47992528,93.859813,-2.4542802)">
          <path
             id="path6182"
             style="opacity:1;vector-effect:none;fill:#fcf1df;fill-opacity:0.694118;fill-rule:evenodd;stroke:#f6e5ce;stroke-width:0.47625;stroke-linecap:butt;stroke-linejoin:miter;stroke-miterlimit:4;stroke-dasharray:none;stroke-dashoffset:0;stroke-opacity:0.694118"
             d="m 145.98431,2.0789878 c 0.44691,1.2639701 1.11488,1.5093336 1.88879,2.4221 0.9423,1.1113658 2.0501,2.7845205 3.21379,3.0906673 0.93892,-1.0616599 0.24517,-2.0731575 0.22387,-3.8513576 -0.013,-1.0873578 0.95844,-2.83091833 0.56428,-3.96714315 -0.24209,-0.6978396 -1.09353,-1.54227185 -1.44654,-2.14669555 -1.07947,-1.8482653 -1.8093,-2.2604782 -3.41947,-2.6841652 -3.03245,6.4681008 -2.08551,4.07913725 -1.04657,7.0736073 0.007,0.020995 0.0145,0.042063 0.0219,0.063015 z"
             sodipodi:nodetypes="cscscscccc" />
          <path
             id="path6187"
             style="opacity:1;vector-effect:none;fill:#ffffff;fill-opacity:0.694118;fill-rule:evenodd;stroke:#ffffff;stroke-width:0.47625;stroke-linecap:butt;stroke-linejoin:miter;stroke-miterlimit:4;stroke-dasharray:none;stroke-dashoffset:0;stroke-opacity:0.694118"
             d="m 146.82646,-5.0595405 c -3.03246,6.468102 -2.08539,4.07899922 -1.04645,7.0734713 0.007,0.020989 0.0143,0.042085 0.0217,0.063045 0.44691,1.2639702 1.11487,1.5093077 1.88877,2.4220726 0.93991,1.1085459 2.04452,2.7753918 3.20498,3.0876689 -1.00046,-0.5448168 -1.94783,-1.9399673 -2.76934,-2.9088662 -0.77391,-0.9127675 -1.44187,-1.158105 -1.88878,-2.4220752 -0.007,-0.02096 -0.0147,-0.042056 -0.0217,-0.063045 -1.03894,-2.99447208 -1.986,-0.6058852 1.04645,-7.0739872 0.32955,0.086715 0.61525,0.1762363 0.8816,0.274402 -0.3758,-0.1811919 -0.80099,-0.3168438 -1.31723,-0.4526862 z" />
        </g>
        <g
           id="g6206"
           transform="matrix(0.25599068,0.20816232,-0.30513499,0.37524425,131.44082,-23.681793)">
          <path
             id="path6202"
             style="opacity:1;vector-effect:none;fill:#fcf1df;fill-opacity:0.694118;fill-rule:evenodd;stroke:#f6e5ce;stroke-width:0.47625;stroke-linecap:butt;stroke-linejoin:miter;stroke-miterlimit:4;stroke-dasharray:none;stroke-dashoffset:0;stroke-opacity:0.694118"
             d="m 145.98431,2.0789878 c 0.44691,1.2639701 1.11488,1.5093336 1.88879,2.4221 0.9423,1.1113658 2.0501,2.7845205 3.21379,3.0906673 0.93892,-1.0616599 0.24517,-2.0731575 0.22387,-3.8513576 -0.013,-1.0873578 0.95844,-2.83091833 0.56428,-3.96714315 -0.24209,-0.6978396 -1.09353,-1.54227185 -1.44654,-2.14669555 -1.07947,-1.8482653 -1.8093,-2.2604782 -3.41947,-2.6841652 -3.03245,6.4681008 -2.08551,4.07913725 -1.04657,7.0736073 0.007,0.020995 0.0145,0.042063 0.0219,0.063015 z"
             sodipodi:nodetypes="cscscscccc" />
          <path
             id="path6204"
             style="opacity:1;vector-effect:none;fill:#ffffff;fill-opacity:0.694118;fill-rule:evenodd;stroke:#ffffff;stroke-width:0.47625;stroke-linecap:butt;stroke-linejoin:miter;stroke-miterlimit:4;stroke-dasharray:none;stroke-dashoffset:0;stroke-opacity:0.694118"
             d="m 146.82646,-5.0595405 c -3.03246,6.468102 -2.08539,4.07899922 -1.04645,7.0734713 0.007,0.020989 0.0143,0.042085 0.0217,0.063045 0.44691,1.2639702 1.11487,1.5093077 1.88877,2.4220726 0.93991,1.1085459 2.04452,2.7753918 3.20498,3.0876689 -1.00046,-0.5448168 -1.94783,-1.9399673 -2.76934,-2.9088662 -0.77391,-0.9127675 -1.44187,-1.158105 -1.88878,-2.4220752 -0.007,-0.02096 -0.0147,-0.042056 -0.0217,-0.063045 -1.03894,-2.99447208 -1.986,-0.6058852 1.04645,-7.0739872 0.32955,0.086715 0.61525,0.1762363 0.8816,0.274402 -0.3758,-0.1811919 -0.80099,-0.3168438 -1.31723,-0.4526862 z" />
        </g>
        <g
           id="g6212"
           transform="matrix(0.25599068,0.20816232,-0.30513499,0.37524425,138.64059,-30.943273)">
          <path
             id="path6208"
             style="opacity:1;vector-effect:none;fill:#fcf1df;fill-opacity:0.694118;fill-rule:evenodd;stroke:#f6e5ce;stroke-width:0.47625;stroke-linecap:butt;stroke-linejoin:miter;stroke-miterlimit:4;stroke-dasharray:none;stroke-dashoffset:0;stroke-opacity:0.694118"
             d="m 145.98431,2.0789878 c 0.44691,1.2639701 1.11488,1.5093336 1.88879,2.4221 0.9423,1.1113658 2.0501,2.7845205 3.21379,3.0906673 0.93892,-1.0616599 3.90513,-2.3466874 3.88383,-4.1248875 -0.013,-1.0873578 4.99416,-2.3213164 4.6,-3.4575412 -0.24209,-0.6978396 -6.19556,-3.440032 -6.54857,-4.0444557 -1.07947,-1.8482653 -4.40295,-0.5987901 -6.01312,-1.0224771 -3.03245,6.4681008 -2.08551,4.07913725 -1.04657,7.0736073 0.007,0.020995 0.0145,0.042063 0.0219,0.063015 z"
             sodipodi:nodetypes="cscscscccc" />
          <path
             id="path6210"
             style="opacity:1;vector-effect:none;fill:#ffffff;fill-opacity:0.694118;fill-rule:evenodd;stroke:#ffffff;stroke-width:0.47625;stroke-linecap:butt;stroke-linejoin:miter;stroke-miterlimit:4;stroke-dasharray:none;stroke-dashoffset:0;stroke-opacity:0.694118"
             d="m 146.82646,-5.0595405 c -3.03246,6.468102 -2.08539,4.07899922 -1.04645,7.0734713 0.007,0.020989 0.0143,0.042085 0.0217,0.063045 0.44691,1.2639702 1.11487,1.5093077 1.88877,2.4220726 0.93991,1.1085459 2.04452,2.7753918 3.20498,3.0876689 -1.00046,-0.5448168 -1.94783,-1.9399673 -2.76934,-2.9088662 -0.77391,-0.9127675 -1.44187,-1.158105 -1.88878,-2.4220752 -0.007,-0.02096 -0.0147,-0.042056 -0.0217,-0.063045 -1.03894,-2.99447208 -1.986,-0.6058852 1.04645,-7.0739872 0.32955,0.086715 0.61525,0.1762363 0.8816,0.274402 -0.3758,-0.1811919 -0.80099,-0.3168438 -1.31723,-0.4526862 z" />
        </g>
        <path
           style="fill:#ffffff;fill-opacity:1;stroke:none;stroke-width:0.264583px;stroke-linecap:butt;stroke-linejoin:miter;stroke-opacity:1"
           d="m 172.75175,-10.8985 4.22004,-1.197026 c 0.77426,0.226073 2.80439,-0.491874 1.45473,1.330727 -0.63901,0.414499 -1.68112,0.718067 -0.70861,1.5760493 -2.24753,-0.1876729 -4.88621,-1.1128173 -5.42801,1.9155278 -0.48726,0.8190382 -1.32657,1.5272827 -3.15009,1.9257909 -0.29574,-0.8258403 1.8192,-1.9016181 -1.8503,-2.3776702 0.61042,-1.2719246 0.50738,-3.0237988 2.95427,-3.0603298 0.9287,1.1516808 1.69753,0.25245 2.50797,-0.113069 z"
           id="path6214"
           sodipodi:nodetypes="ccccccccc" />
        <path
           style="fill:#ffffff;fill-opacity:1;stroke:none;stroke-width:0.172869px;stroke-linecap:butt;stroke-linejoin:miter;stroke-opacity:1"
           d="m 171.78649,10.557173 1.12033,-2.8356352 c 0.42666,-0.3632446 0.89512,-1.777435 1.25109,-0.3633079 -0.0539,0.5115507 -0.32663,1.2145979 0.49406,0.960578 -1.00605,1.2194955 -2.53686,2.4029321 -1.25454,3.7797351 0.2084,0.567269 0.21884,1.296878 -0.32417,2.480355 -0.52984,-0.121778 -0.20445,-1.710552 -1.93118,0.220742 -0.38306,-0.797266 -1.29404,-1.355511 -0.31824,-2.768035 0.9486,-0.125494 0.81479,-0.882077 0.96265,-1.474432 z"
           id="path6216"
           sodipodi:nodetypes="ccccccccc"
           inkscape:transform-center-x="2.0804348"
           inkscape:transform-center-y="1.7672866" />
        <path
           style="fill:#ffffff;fill-opacity:1;stroke:none;stroke-width:0.172869px;stroke-linecap:butt;stroke-linejoin:miter;stroke-opacity:1"
           d="m 192.2301,7.2568223 1.12033,-2.8356352 c 0.42666,-0.3632446 0.89512,-1.777435 1.25109,-0.3633079 -0.0539,0.5115507 -0.32663,1.2145979 0.49406,0.960578 -1.00605,1.2194955 -2.53686,2.4029321 -1.25454,3.7797351 0.2084,0.567269 0.21884,1.2968777 -0.32417,2.4803547 -0.52984,-0.121778 -0.20445,-1.7105517 -1.93118,0.220742 -0.38306,-0.797266 -1.29404,-1.355511 -0.31824,-2.7680347 0.9486,-0.125494 0.81479,-0.882077 0.96265,-1.474432 z"
           id="path6222"
           sodipodi:nodetypes="ccccccccc"
           inkscape:transform-center-x="2.0804348"
           inkscape:transform-center-y="1.7672866" />
      </g>
      <g
         id="g6129"
         transform="rotate(-16.542263,90.07335,-132.60137)">
        <path
           id="path6117"
           style="opacity:1;vector-effect:none;fill:#f6f5ee;fill-opacity:0.999631;fill-rule:evenodd;stroke:#000000;stroke-width:1.19197;stroke-linecap:butt;stroke-linejoin:miter;stroke-miterlimit:4;stroke-dasharray:none;stroke-dashoffset:0;stroke-opacity:1"
           d="m 808.1582,-0.17382812 c -10.25801,4.24e-6 -37.22923,6.43842592 -53.08008,18.25781212 -11.45801,8.543949 -15.75458,14.919137 -24.19921,23.669922 -13.10431,13.579351 -12.91884,29.406968 -8.71094,32.962891 1.54782,1.308014 7.83771,4.990775 11.13075,4.964009 -2.42224,-5.832211 -4.88102,-22.587324 6.31066,-34.184712 8.44463,-8.750785 12.74315,-15.125974 24.20117,-23.669922 15.85084,-11.819387 39.04153,-11.176465 49.29939,-11.122209 10.58559,0.05599 1.38972,5.544108 9.93564,-2.3415052 8.77974,-2.4740509 -9.85802,-8.536288 -14.88738,-8.53628592 z"
           sodipodi:nodetypes="sssscssscs"
           transform="scale(0.26458333)" />
        <path
           id="path6119"
           style="opacity:1;vector-effect:none;fill:#f7f4ef;fill-opacity:0.999631;fill-rule:evenodd;stroke:#000000;stroke-width:0.315375;stroke-linecap:butt;stroke-linejoin:miter;stroke-miterlimit:4;stroke-dasharray:none;stroke-dashoffset:0;stroke-opacity:1"
           d="m 212.27107,12.32146 c -3.08832,3.200268 -5.56766,5.09932 -8.57674,6.530355 -2.17947,1.036503 -5.09189,2.272171 -7.05611,2.272169 -1.63152,0 -2.6581,0.139132 -3.25472,-0.365051 -1.11334,-0.940838 -1.16231,-5.128669 2.30487,-8.721539 2.23431,-2.3153118 3.37134,-4.0018651 6.40294,-6.2624515 4.19387,-3.1272127 11.33005,-4.83075212 14.04415,-4.83075335 3.17464,-1.32e-6 3.79285,2.00428155 1.52407,5.47173205 -1.07302,1.6399066 -3.67862,4.1337048 -5.38846,5.9055388 z"
           sodipodi:nodetypes="sssssssss" />
        <path
           style="fill:#ffffff;fill-opacity:1;stroke:none;stroke-width:0.0793115px;stroke-linecap:butt;stroke-linejoin:miter;stroke-opacity:1"
           d="m 192.93275,12.771067 0.88428,-0.939958 c 0.25381,-0.07867 0.65002,-0.560753 0.663,0.04282 -0.086,0.191418 -0.30271,0.425207 0.13403,0.447193 -0.64049,0.326957 -1.53726,0.562504 -1.06018,1.288111 0.0378,0.251801 -0.0415,0.537684 -0.44801,0.918864 -0.24887,-0.125566 0.0965,-0.696781 -0.98404,-0.198659 -0.0978,-0.367182 -0.48536,-0.719037 0.16246,-1.125682 0.48534,0.09093 0.5065,-0.223652 0.64846,-0.43271 z"
           id="path6216-3"
           sodipodi:nodetypes="ccccccccc"
           inkscape:transform-center-x="1.0771502"
           inkscape:transform-center-y="0.71848879" />
      </g>
      <g
         id="g6135"
         transform="matrix(0.82419763,-0.2447999,0.22938741,0.7723065,72.628295,16.288844)">
        <path
           id="path6131"
           style="opacity:1;vector-effect:none;fill:#f6f5ee;fill-opacity:0.999631;fill-rule:evenodd;stroke:#000000;stroke-width:1.19197;stroke-linecap:butt;stroke-linejoin:miter;stroke-miterlimit:4;stroke-dasharray:none;stroke-dashoffset:0;stroke-opacity:1"
           d="m 808.1582,-0.17382812 c -10.25801,4.24e-6 -37.22923,6.43842592 -53.08008,18.25781212 -11.45801,8.543949 -15.75458,14.919137 -24.19921,23.669922 -13.10431,13.579351 -12.91884,29.406968 -8.71094,32.962891 1.54782,1.308014 7.83771,4.990775 11.13075,4.964009 -2.42224,-5.832211 -4.88102,-22.587324 6.31066,-34.184712 8.44463,-8.750785 12.74315,-15.125974 24.20117,-23.669922 15.85084,-11.819387 39.04153,-11.176465 49.29939,-11.122209 10.58559,0.05599 1.38972,5.544108 9.93564,-2.3415052 8.77974,-2.4740509 -9.85802,-8.536288 -14.88738,-8.53628592 z"
           sodipodi:nodetypes="sssscssscs"
           transform="scale(0.26458333)" />
        <path
           id="path6133"
           style="opacity:1;vector-effect:none;fill:#faf9f4;fill-opacity:0.999631;fill-rule:evenodd;stroke:#000000;stroke-width:0.315375;stroke-linecap:butt;stroke-linejoin:miter;stroke-miterlimit:4;stroke-dasharray:none;stroke-dashoffset:0;stroke-opacity:1"
           d="m 212.27107,12.32146 c -3.08832,3.200268 -5.56766,5.09932 -8.57674,6.530355 -2.17947,1.036503 -5.09189,2.272171 -7.05611,2.272169 -1.63152,0 -2.6581,0.139132 -3.25472,-0.365051 -1.11334,-0.940838 -1.16231,-5.128669 2.30487,-8.721539 2.23431,-2.3153118 3.37134,-4.0018651 6.40294,-6.2624515 4.19387,-3.1272127 11.33005,-4.83075212 14.04415,-4.83075335 3.17464,-1.32e-6 3.79285,2.00428155 1.52407,5.47173205 -1.07302,1.6399066 -3.67862,4.1337048 -5.38846,5.9055388 z"
           sodipodi:nodetypes="sssssssss" />
      </g>
      <g
         id="g6141"
         transform="matrix(0.72172136,-0.21436281,0.19825875,0.66750188,96.9839,12.494546)">
        <path
           id="path6137"
           style="opacity:1;vector-effect:none;fill:#f6f5ee;fill-opacity:0.999631;fill-rule:evenodd;stroke:#000000;stroke-width:1.19197;stroke-linecap:butt;stroke-linejoin:miter;stroke-miterlimit:4;stroke-dasharray:none;stroke-dashoffset:0;stroke-opacity:1"
           d="m 808.1582,-0.17382812 c -10.25801,4.24e-6 -37.22923,6.43842592 -53.08008,18.25781212 -11.45801,8.543949 -15.75458,14.919137 -24.19921,23.669922 -13.10431,13.579351 -12.91884,29.406968 -8.71094,32.962891 1.54782,1.308014 7.83771,4.990775 11.13075,4.964009 -2.42224,-5.832211 -4.88102,-22.587324 6.31066,-34.184712 8.44463,-8.750785 12.74315,-15.125974 24.20117,-23.669922 15.85084,-11.819387 39.04153,-11.176465 49.29939,-11.122209 10.58559,0.05599 1.38972,5.544108 9.93564,-2.3415052 8.77974,-2.4740509 -9.85802,-8.536288 -14.88738,-8.53628592 z"
           sodipodi:nodetypes="sssscssscs"
           transform="scale(0.26458333)" />
        <path
           id="path6139"
           style="opacity:1;vector-effect:none;fill:#fbfbfb;fill-opacity:0.999631;fill-rule:evenodd;stroke:#000000;stroke-width:0.315375;stroke-linecap:butt;stroke-linejoin:miter;stroke-miterlimit:4;stroke-dasharray:none;stroke-dashoffset:0;stroke-opacity:1"
           d="m 212.27107,12.32146 c -3.08832,3.200268 -5.56766,5.09932 -8.57674,6.530355 -2.17947,1.036503 -5.09189,2.272171 -7.05611,2.272169 -1.63152,0 -2.6581,0.139132 -3.25472,-0.365051 -1.11334,-0.940838 -1.16231,-5.128669 2.30487,-8.721539 2.23431,-2.3153118 3.37134,-4.0018651 6.40294,-6.2624515 4.19387,-3.1272127 11.33005,-4.83075212 14.04415,-4.83075335 3.17464,-1.32e-6 3.79285,2.00428155 1.52407,5.47173205 -1.07302,1.6399066 -3.67862,4.1337048 -5.38846,5.9055388 z"
           sodipodi:nodetypes="sssssssss" />
      </g>
      <path
         style="fill:#fdf2e4;fill-opacity:0.694118;stroke:none;stroke-width:0.244259px;stroke-linecap:butt;stroke-linejoin:miter;stroke-opacity:1"
         d="m 236.0233,-46.941478 -4.31341,4.439541 -3.08864,5.575567 -3.73292,6.956601 -1.38986,2.121247 -0.93523,3.062606 0.0314,1.042468 1.38726,-4.092656 2.75574,-4.066551 3.77075,-7.318485 2.50071,-3.603755 3.37002,-3.710862 z"
         id="path6668" />
      <path
         style="fill:#fdf2e4;fill-opacity:0.694118;stroke:none;stroke-width:0.248036px;stroke-linecap:butt;stroke-linejoin:miter;stroke-opacity:1"
         d="m 238.26584,-44.719113 -4.71476,4.155032 -3.53293,5.374452 -4.28417,6.713769 -1.5644,2.030325 -1.15974,3.003204 -0.036,1.04571 1.69081,-4.004054 3.0927,-3.886123 4.34665,-7.07351 2.80083,-3.439931 3.69944,-3.488842 z"
         id="path6670" />
      <path
         style="fill:#fdf2e4;fill-opacity:0.694118;stroke:none;stroke-width:0.221116px;stroke-linecap:butt;stroke-linejoin:miter;stroke-opacity:1"
         d="m 236.43265,-40.767176 -3.80192,4.127586 -2.72238,5.183787 -3.29028,6.467779 -1.22505,1.972192 -0.82433,2.847405 0.0277,0.969217 1.22275,-3.805076 2.42897,-3.780805 3.32361,-6.804235 2.20418,-3.350529 2.9704,-3.45011 z"
         id="path6672" />
      <path
         style="fill:#fdf2e4;fill-opacity:0.694118;stroke:none;stroke-width:0.175468px;stroke-linecap:butt;stroke-linejoin:miter;stroke-opacity:1"
         d="m 253.61111,-31.405137 -3.24489,3.045465 -2.32352,3.824763 -2.8082,4.772133 -1.04556,1.455147 -0.70356,2.100906 0.0236,0.715119 1.0436,-2.807507 2.07309,-2.789598 2.83666,-5.020381 1.88124,-2.472127 2.53519,-2.545601 z"
         id="path6674" />
      <path
         style="fill:#fdf2e4;fill-opacity:0.694118;stroke:none;stroke-width:0.209317px;stroke-linecap:butt;stroke-linejoin:miter;stroke-opacity:1"
         d="m 232.70104,-48.649495 -3.46103,4.063129 -2.47828,5.102836 -2.99526,6.366776 -1.1152,1.941395 -0.75042,2.802939 0.0252,0.954081 1.11312,-3.745655 2.21118,-3.721763 3.0256,-6.697978 2.00655,-3.298206 2.70406,-3.396232 z"
         id="path6676" />
      <path
         style="fill:#fdf2e4;fill-opacity:0.694118;stroke:none;stroke-width:0.221116px;stroke-linecap:butt;stroke-linejoin:miter;stroke-opacity:1"
         d="m 236.43265,-40.767176 -3.80192,4.127586 -2.72238,5.183787 -3.29028,6.467779 -1.22505,1.972192 -0.82433,2.847405 0.0277,0.969217 1.22275,-3.805076 2.42897,-3.780805 3.32361,-6.804235 2.20418,-3.350529 2.9704,-3.45011 z"
         id="path6678" />
      <path
         style="fill:#fdf2e4;fill-opacity:0.694118;stroke:none;stroke-width:0.175468px;stroke-linecap:butt;stroke-linejoin:miter;stroke-opacity:1"
         d="m 252.23454,-32.289935 -3.24489,3.045465 -2.32352,3.824763 -2.8082,4.772133 -1.04556,1.455147 -0.70356,2.100906 0.0236,0.715119 1.0436,-2.807507 2.07309,-2.789598 2.83666,-5.020381 1.88124,-2.472127 2.53519,-2.545601 z"
         id="path6680" />
    </g>
  </g>
</svg>
