<?xml version="1.0" encoding="UTF-8" standalone="no"?>
<svg
   xmlns:dc="http://purl.org/dc/elements/1.1/"
   xmlns:cc="http://creativecommons.org/ns#"
   xmlns:rdf="http://www.w3.org/1999/02/22-rdf-syntax-ns#"
   xmlns:svg="http://www.w3.org/2000/svg"
   xmlns="http://www.w3.org/2000/svg"
   xmlns:sodipodi="http://sodipodi.sourceforge.net/DTD/sodipodi-0.dtd"
   xmlns:inkscape="http://www.inkscape.org/namespaces/inkscape"
   width="62.985527mm"
   height="52.692707mm"
   viewBox="0 0 62.985527 52.692707"
   version="1.1"
   id="svg14498"
   inkscape:version="1.0.2 (e86c870879, 2021-01-15)"
   sodipodi:docname="olives.svg">
  <defs
     id="defs14492" />
  <sodipodi:namedview
     id="base"
     pagecolor="#ffffff"
     bordercolor="#666666"
     borderopacity="1.0"
     inkscape:pageopacity="0.0"
     inkscape:pageshadow="2"
     inkscape:zoom="0.38402778"
     inkscape:cx="-79.887234"
     inkscape:cy="-366.39069"
     inkscape:document-units="mm"
     inkscape:current-layer="layer1"
     inkscape:document-rotation="0"
     showgrid="false"
     inkscape:window-width="1271"
     inkscape:window-height="2118"
     inkscape:window-x="4481"
     inkscape:window-y="34"
     inkscape:window-maximized="1" />
  <metadata
     id="metadata14495">
    <rdf:RDF>
      <cc:Work
         rdf:about="">
        <dc:format>image/svg+xml</dc:format>
        <dc:type
           rdf:resource="http://purl.org/dc/dcmitype/StillImage" />
        <dc:title></dc:title>
      </cc:Work>
    </rdf:RDF>
  </metadata>
  <g
     inkscape:label="Layer 1"
     inkscape:groupmode="layer"
     id="layer1"
     transform="translate(-126.97016,-245.10754)">
    <g
       id="g6843"
       transform="matrix(0.97322635,0,0,0.97322635,97.77393,310.85156)">
      <path
         id="path6812"
         style="opacity:1;vector-effect:none;fill:#383838;fill-opacity:1;fill-rule:evenodd;stroke:#000000;stroke-width:0.367155;stroke-linecap:butt;stroke-linejoin:miter;stroke-miterlimit:4;stroke-dasharray:none;stroke-dashoffset:0;stroke-opacity:1"
         d="m 73.214866,-53.663378 c -4.369089,4.615956 -9.25763,5.633741 -14.856104,4.842608 -5.247078,-0.741476 -9.883692,-7.171962 -6.707808,-12.04086 3.175883,-4.868898 10.775167,-7.697421 15.600862,-6.021025 4.825694,1.676395 10.162582,8.782464 5.96305,13.219277 z"
         sodipodi:nodetypes="sssss" />
      <path
         id="path6790"
         style="opacity:1;vector-effect:none;fill:#383838;fill-opacity:1;fill-rule:evenodd;stroke:#000000;stroke-width:0.47625;stroke-linecap:butt;stroke-linejoin:miter;stroke-miterlimit:4;stroke-dasharray:none;stroke-dashoffset:0;stroke-opacity:1"
         d="m 86.27765,-35.835584 c -4.841417,7.008932 -10.258442,8.554351 -16.462149,7.353084 -5.814322,-1.125868 -10.952185,-10.890008 -7.432967,-18.283011 3.519217,-7.393002 11.940035,-11.687871 17.28742,-9.142408 5.347384,2.545462 11.261226,13.335416 6.607696,20.072335 z"
         sodipodi:nodetypes="sssss" />
      <path
         id="path6814"
         style="opacity:1;vector-effect:none;fill:#ffffff;fill-opacity:0.0858994;fill-rule:evenodd;stroke:none;stroke-width:0.526944;stroke-linecap:butt;stroke-linejoin:miter;stroke-miterlimit:4;stroke-dasharray:none;stroke-dashoffset:0;stroke-opacity:1"
         d="m 65.87925,-63.036219 c 2.143014,1.09685 -2.326653,2.609379 -5.144876,5.106311 -2.818224,2.49693 -2.917809,5.032724 -5.060823,3.935874 -2.143015,-1.096847 -1.595647,-4.010183 1.222576,-6.507114 2.818229,-2.496931 6.840109,-3.631921 8.983123,-2.535071 z"
         sodipodi:nodetypes="sssss" />
      <path
         id="path6808"
         style="opacity:1;vector-effect:none;fill:#383838;fill-opacity:1;fill-rule:evenodd;stroke:#000000;stroke-width:0.394777;stroke-linecap:butt;stroke-linejoin:miter;stroke-miterlimit:4;stroke-dasharray:none;stroke-dashoffset:0;stroke-opacity:1"
         d="m 63.660897,-42.055541 c -4.162395,5.601642 -8.819667,6.836763 -14.153287,5.876693 -4.998847,-0.89981 -9.41611,-8.703454 -6.390472,-14.612051 3.025637,-5.908596 10.265412,-9.341118 14.862811,-7.306747 4.597399,2.034371 9.681808,10.657861 5.680948,16.042105 z"
         sodipodi:nodetypes="sssss" />
      <path
         id="path6770"
         style="opacity:1;vector-effect:none;fill:#383838;fill-opacity:1;fill-rule:evenodd;stroke:#000000;stroke-width:0.47625;stroke-linecap:butt;stroke-linejoin:miter;stroke-miterlimit:4;stroke-dasharray:none;stroke-dashoffset:0;stroke-opacity:1"
         d="m 73.631924,-34.913112 c 1.770658,8.33242 -0.825677,13.331572 -5.958933,17.016501 -4.81106,3.453639 -15.437248,0.483756 -18.395042,-7.151219 -2.957794,-7.634974 -0.29753,-16.705755 5.224875,-18.845137 5.522403,-2.139383 17.427161,0.970811 19.1291,8.979855 z"
         sodipodi:nodetypes="sssss" />
      <ellipse
         style="opacity:1;vector-effect:none;fill:#000000;fill-opacity:1;fill-rule:evenodd;stroke:none;stroke-width:0.669866;stroke-linecap:butt;stroke-linejoin:miter;stroke-miterlimit:4;stroke-dasharray:none;stroke-dashoffset:0;stroke-opacity:1"
         id="path6773"
         cx="65.91423"
         cy="-22.533283"
         rx="5.4817219"
         ry="4.1805892" />
      <path
         id="path6810"
         style="opacity:1;vector-effect:none;fill:#ffffff;fill-opacity:0.0858994;fill-rule:evenodd;stroke:none;stroke-width:0.566588;stroke-linecap:butt;stroke-linejoin:miter;stroke-miterlimit:4;stroke-dasharray:none;stroke-dashoffset:0;stroke-opacity:1"
         d="m 56.672317,-53.429847 c 2.041632,1.331071 -2.216583,3.166582 -4.90148,6.196707 -2.684899,3.030121 -2.779773,6.107405 -4.821404,4.776336 -2.041633,-1.331067 -1.52016,-4.866513 1.164738,-7.896635 2.684903,-3.030124 6.516515,-4.407477 8.558146,-3.076408 z"
         sodipodi:nodetypes="sssss" />
      <path
         id="path6777"
         style="opacity:1;vector-effect:none;fill:#ffffff;fill-opacity:0.0858994;fill-rule:evenodd;stroke:none;stroke-width:0.47625;stroke-linecap:butt;stroke-linejoin:miter;stroke-miterlimit:4;stroke-dasharray:none;stroke-dashoffset:0;stroke-opacity:1"
         d="m 59.842226,-36.533684 c 1.309904,1.506558 -2.274997,2.461981 -4.881695,4.728423 -2.606698,2.266441 -3.248091,4.985645 -4.557995,3.479088 -1.309904,-1.506557 -0.258644,-4.565177 2.348054,-6.831619 2.606699,-2.266442 5.781732,-2.882449 7.091636,-1.375892 z"
         sodipodi:nodetypes="sssss" />
      <path
         id="path6780"
         style="opacity:1;vector-effect:none;fill:#ffffff;fill-opacity:0.320092;fill-rule:evenodd;stroke:none;stroke-width:0.323888;stroke-linecap:butt;stroke-linejoin:miter;stroke-miterlimit:4;stroke-dasharray:none;stroke-dashoffset:0;stroke-opacity:1"
         d="m 63.501013,-19.04579 c -0.950224,-0.960546 2.338022,-0.357327 4.228962,-1.802359 1.890939,-1.445032 1.668511,-4.391109 2.618736,-3.430563 0.950224,0.960547 1.109229,3.146069 -0.78171,4.591102 -1.89094,1.445031 -5.115763,1.602368 -6.065988,0.64182 z"
         sodipodi:nodetypes="sssss" />
      <path
         id="path6782"
         style="opacity:1;vector-effect:none;fill:#383838;fill-opacity:1;fill-rule:evenodd;stroke:#000000;stroke-width:0.47625;stroke-linecap:butt;stroke-linejoin:miter;stroke-miterlimit:4;stroke-dasharray:none;stroke-dashoffset:0;stroke-opacity:1"
         d="m 92.796207,-22.306826 c -4.841417,7.008932 -10.258442,8.554351 -16.462149,7.353084 -5.814322,-1.125868 -10.952185,-10.890008 -7.432967,-18.283011 3.519217,-7.393002 11.940035,-11.687871 17.28742,-9.142408 5.347384,2.545462 11.261226,13.335416 6.607696,20.072335 z"
         sodipodi:nodetypes="sssss" />
      <path
         id="path6786"
         style="opacity:1;vector-effect:none;fill:#ffffff;fill-opacity:0.0858994;fill-rule:evenodd;stroke:none;stroke-width:0.683518;stroke-linecap:butt;stroke-linejoin:miter;stroke-miterlimit:4;stroke-dasharray:none;stroke-dashoffset:0;stroke-opacity:1"
         d="m 84.667562,-36.538679 c 2.374688,1.665473 -2.57818,3.962117 -5.701072,7.753494 -3.122893,3.791373 -3.233244,7.641758 -5.607932,5.976287 -2.374689,-1.665469 -1.768147,-6.089119 1.354745,-9.880493 3.122898,-3.791376 7.579571,-5.51476 9.954259,-3.849288 z"
         sodipodi:nodetypes="sssss" />
      <ellipse
         style="opacity:1;vector-effect:none;fill:#000000;fill-opacity:1;fill-rule:evenodd;stroke:none;stroke-width:0.592682;stroke-linecap:butt;stroke-linejoin:miter;stroke-miterlimit:4;stroke-dasharray:none;stroke-dashoffset:0;stroke-opacity:1"
         id="ellipse6792"
         cx="76.897865"
         cy="32.225101"
         rx="4.5516858"
         ry="3.9413948"
         transform="matrix(0.6183219,-0.78592495,0.91021807,0.41412928,0,0)" />
      <path
         id="path6794"
         style="opacity:1;vector-effect:none;fill:#ffffff;fill-opacity:0.320092;fill-rule:evenodd;stroke:none;stroke-width:0.282445;stroke-linecap:butt;stroke-linejoin:miter;stroke-miterlimit:4;stroke-dasharray:none;stroke-dashoffset:0;stroke-opacity:1"
         d="m 78.633272,-44.154128 c -1.312143,0.24507 0.893743,-1.665269 0.624544,-3.463457 -0.2692,-1.798187 -2.911543,-2.803284 -1.599399,-3.048355 1.312144,-0.245071 3.269263,0.504469 3.538463,2.302657 0.269198,1.798187 -1.251462,3.964084 -2.563608,4.209155 z"
         sodipodi:nodetypes="sssss" />
      <path
         id="path6796"
         style="opacity:1;vector-effect:none;fill:#383838;fill-opacity:1;fill-rule:evenodd;stroke:#000000;stroke-width:0.47625;stroke-linecap:butt;stroke-linejoin:miter;stroke-miterlimit:4;stroke-dasharray:none;stroke-dashoffset:0;stroke-opacity:1"
         d="m 49.253406,-39.459383 c 7.703625,3.63574 10.11034,8.728892 9.93509,15.045403 -0.16425,5.920046 -8.961654,12.579006 -16.828966,10.310352 -7.867311,-2.268652 -13.475826,-9.877899 -11.8349,-15.568354 1.640924,-5.690453 11.324123,-13.282046 18.728776,-9.787401 z"
         sodipodi:nodetypes="sssss" />
      <path
         id="path6798"
         style="opacity:1;vector-effect:none;fill:#ffffff;fill-opacity:0.0858994;fill-rule:evenodd;stroke:none;stroke-width:0.683518;stroke-linecap:butt;stroke-linejoin:miter;stroke-miterlimit:4;stroke-dasharray:none;stroke-dashoffset:0;stroke-opacity:1"
         d="m 47.991075,-36.735848 c 2.060411,2.041482 -3.208407,3.471528 -6.925008,6.683049 -3.7166,3.211518 -4.473593,6.988369 -6.534003,4.946889 -2.060413,-2.041479 -0.717802,-6.299879 2.998798,-9.511398 3.716606,-3.21152 8.399803,-4.160021 10.460213,-2.11854 z"
         sodipodi:nodetypes="sssss" />
      <g
         id="g6806"
         transform="rotate(-99.369707,56.603177,-33.517984)">
        <ellipse
           style="opacity:1;vector-effect:none;fill:#000000;fill-opacity:1;fill-rule:evenodd;stroke:none;stroke-width:0.303201;stroke-linecap:butt;stroke-linejoin:miter;stroke-miterlimit:4;stroke-dasharray:none;stroke-dashoffset:0;stroke-opacity:1"
           id="ellipse6800"
           cx="52.999584"
           cy="-38.720863"
           rx="3.7993944"
           ry="1.2357364" />
        <ellipse
           style="opacity:1;vector-effect:none;fill:#000000;fill-opacity:1;fill-rule:evenodd;stroke:none;stroke-width:0.310628;stroke-linecap:butt;stroke-linejoin:miter;stroke-miterlimit:4;stroke-dasharray:none;stroke-dashoffset:0;stroke-opacity:1"
           id="ellipse6802"
           cx="-38.601059"
           cy="-52.9119"
           rx="3.9878106"
           ry="1.2357364"
           transform="rotate(90)" />
      </g>
      <g
         id="g6820"
         transform="matrix(-0.14413669,-0.68064932,0.87352513,-0.11231107,110.70714,-26.94367)">
        <ellipse
           style="opacity:1;vector-effect:none;fill:#000000;fill-opacity:1;fill-rule:evenodd;stroke:none;stroke-width:0.303201;stroke-linecap:butt;stroke-linejoin:miter;stroke-miterlimit:4;stroke-dasharray:none;stroke-dashoffset:0;stroke-opacity:1"
           id="ellipse6816"
           cx="52.999584"
           cy="-38.720863"
           rx="3.7993944"
           ry="1.2357364" />
        <ellipse
           style="opacity:1;vector-effect:none;fill:#000000;fill-opacity:1;fill-rule:evenodd;stroke:none;stroke-width:0.310628;stroke-linecap:butt;stroke-linejoin:miter;stroke-miterlimit:4;stroke-dasharray:none;stroke-dashoffset:0;stroke-opacity:1"
           id="ellipse6818"
           cx="-38.601059"
           cy="-52.9119"
           rx="3.9878106"
           ry="1.2357364"
           transform="rotate(90)" />
      </g>
    </g>
  </g>
</svg>
