<?xml version="1.0" encoding="UTF-8" standalone="no"?>
<svg
   xmlns:dc="http://purl.org/dc/elements/1.1/"
   xmlns:cc="http://creativecommons.org/ns#"
   xmlns:rdf="http://www.w3.org/1999/02/22-rdf-syntax-ns#"
   xmlns:svg="http://www.w3.org/2000/svg"
   xmlns="http://www.w3.org/2000/svg"
   xmlns:sodipodi="http://sodipodi.sourceforge.net/DTD/sodipodi-0.dtd"
   xmlns:inkscape="http://www.inkscape.org/namespaces/inkscape"
   width="80.758049mm"
   height="84.812836mm"
   viewBox="0 0 80.758049 84.812836"
   version="1.1"
   id="svg13877"
   inkscape:version="1.0.2 (e86c870879, 2021-01-15)"
   sodipodi:docname="tomato.svg">
  <defs
     id="defs13871" />
  <sodipodi:namedview
     id="base"
     pagecolor="#ffffff"
     bordercolor="#666666"
     borderopacity="1.0"
     inkscape:pageopacity="0.0"
     inkscape:pageshadow="2"
     inkscape:zoom="1.0181327"
     inkscape:cx="661.98073"
     inkscape:cy="238.54022"
     inkscape:document-units="mm"
     inkscape:current-layer="layer1"
     inkscape:document-rotation="0"
     showgrid="false"
     inkscape:window-width="3840"
     inkscape:window-height="2128"
     inkscape:window-x="1920"
     inkscape:window-y="32"
     inkscape:window-maximized="1" />
  <metadata
     id="metadata13874">
    <rdf:RDF>
      <cc:Work
         rdf:about="">
        <dc:format>image/svg+xml</dc:format>
        <dc:type
           rdf:resource="http://purl.org/dc/dcmitype/StillImage" />
        <dc:title></dc:title>
      </cc:Work>
    </rdf:RDF>
  </metadata>
  <g
     inkscape:label="Layer 1"
     inkscape:groupmode="layer"
     id="layer1"
     transform="translate(69.315734,-85.0529)">
    <g
       id="g5857"
       transform="matrix(2.1412524,0,0,2.1412524,-481.66695,-615.79028)"
       style="stroke-width:0.205954;stroke-miterlimit:4;stroke-dasharray:none">
      <path
         id="path5828"
         style="opacity:1;vector-effect:none;fill:#e42a2a;fill-opacity:1;fill-rule:evenodd;stroke:#000000;stroke-width:0.205954;stroke-linecap:butt;stroke-linejoin:miter;stroke-miterlimit:4;stroke-dasharray:none;stroke-dashoffset:0;stroke-opacity:1"
         d="m 230.18714,348.30604 c 0,9.61114 -8.61351,18.50523 -18.67844,18.50523 -10.06493,0 -18.83094,-7.79136 -18.83094,-17.4025 0,-4.06059 1.3736,-8.90325 3.81479,-11.86386 3.33694,-4.04696 9.20354,-5.53865 15.01615,-5.53865 5.4273,0 10.8556,0.96319 14.19418,4.55786 2.85282,3.07164 4.48426,7.31338 4.48426,11.74192 z"
         sodipodi:nodetypes="sssssss" />
      <path
         id="path5831"
         style="opacity:1;vector-effect:none;fill:#ffffff;fill-opacity:0.510537;fill-rule:evenodd;stroke:none;stroke-width:0.205954;stroke-linecap:butt;stroke-linejoin:miter;stroke-miterlimit:4;stroke-dasharray:none;stroke-dashoffset:0;stroke-opacity:1"
         d="m 226.20443,344.81847 c 1.01275,1.81092 0.93076,3.78396 -0.18314,4.40691 -1.1139,0.62295 -0.62944,-0.3401 -1.64219,-2.15101 -1.01276,-1.81092 -3.13923,-3.78397 -2.02533,-4.40692 1.11391,-0.62295 2.8379,0.3401 3.85066,2.15102 z"
         sodipodi:nodetypes="sssss" />
      <path
         id="path5834"
         style="opacity:1;vector-effect:none;fill:#ffffff;fill-opacity:0.510537;fill-rule:evenodd;stroke:none;stroke-width:0.205954;stroke-linecap:butt;stroke-linejoin:miter;stroke-miterlimit:4;stroke-dasharray:none;stroke-dashoffset:0;stroke-opacity:1"
         d="m 208.58574,362.71989 c -2.97025,-0.47842 -5.16322,-2.5104 -4.89813,-4.53854 0.26509,-2.02816 0.94437,-0.46993 3.91461,0.008 2.97026,0.47842 7.10674,-0.30412 6.84164,1.72404 -0.26509,2.02816 -2.88787,3.28445 -5.85812,2.80602 z"
         sodipodi:nodetypes="sssss" />
      <path
         id="path5836"
         style="opacity:1;vector-effect:none;fill:#ffffff;fill-opacity:0.510537;fill-rule:evenodd;stroke:none;stroke-width:0.205954;stroke-linecap:butt;stroke-linejoin:miter;stroke-miterlimit:4;stroke-dasharray:none;stroke-dashoffset:0;stroke-opacity:1"
         d="m 198.33249,350.62631 c -2.3346,-2.83622 0.93275,-9.77409 2.36992,-11.51725 1.43717,-1.74317 -1.0828,3.61264 1.2518,6.44884 2.33461,2.8362 8.13123,0.96219 6.69405,2.70535 -1.43717,1.74318 -7.98116,5.19926 -10.31577,2.36306 z"
         sodipodi:nodetypes="sssss" />
      <path
         style="fill:#2bd42b;fill-opacity:1;stroke:#000000;stroke-width:0.205954;stroke-linecap:butt;stroke-linejoin:miter;stroke-miterlimit:4;stroke-dasharray:none;stroke-opacity:1"
         d="m 221.05142,352.48189 -0.26612,-1.21424 -4.82824,-7.57815 -0.98252,-1.09353 -0.73688,-1.33646 c 0.23157,-0.87851 0.98447,-1.75703 1.9561,-2.63554 1.24775,-2.64601 2.26891,-5.29201 3.26358,-7.93802 l 1.0717,-1.71218 1.51702,-1.33681 c -0.76829,0.36943 -1.6511,0.66071 -2.07259,1.26676 -1.51512,2.6933 -2.738,5.21918 -4.54734,8.08103 l -1.18154,0.85039 c 0.41845,-2.17969 0.84452,-4.36074 2.22973,-6.71322 l 2.32113,-3.31083 0.77326,0.2028 -0.59124,-0.60115 -0.54542,0.0558 c -0.96759,0.8202 -1.91,1.59604 -2.93721,2.5213 l -1.02262,1.30052 c -0.63463,1.24251 -1.25374,2.47636 -2.02464,3.79495 l -1.33161,1.64469 -3.30234,-3.75532 c -0.76825,-0.42623 -1.52708,-0.91511 -2.33666,-1.06648 -0.85482,-0.25457 -1.42448,-0.33002 -2.01078,-0.30591 l -1.12207,0.10175 -0.53416,0.72895 c 0.29247,-0.13265 0.41048,-0.21087 0.88363,-0.39988 0.7525,0.0857 1.40543,0.27795 1.92953,0.60796 l 1.25917,1.04462 c 1.00459,1.24722 1.3614,2.49444 1.82093,3.74166 l -0.17798,1.03298 -1.85567,-0.34901 -1.30916,0.28392 -2.33489,0.79524 c -0.7075,0.64203 -1.59805,1.23854 -2.72555,1.77614 l -2.73172,0.71159 -3.42673,0.508 c 1.71034,-0.0453 3.67722,0.0997 5.127,-0.13893 l 3.38792,-1.12192 2.94821,-1.30215 c 1.3623,0.16695 2.07482,0.37929 2.37369,0.62053 l 0.45105,0.68063 -0.82752,0.44271 -5.15525,1.5598 -3.62735,0.15831 4.35157,-0.0451 4.11415,-0.6418 4.54191,-0.0205 c 0.91086,0.34084 1.80269,0.76918 2.63752,1.45939 1.78638,1.92837 3.58937,3.97786 5.41803,6.2144 z"
         id="path5845"
         sodipodi:nodetypes="ccccccccccccccccccccccccccccccccccccccccccccccccccc" />
      <path
         id="ellipse5842"
         style="opacity:1;vector-effect:none;fill:#008a00;fill-opacity:0.510537;fill-rule:evenodd;stroke:#000000;stroke-width:0.205954;stroke-linecap:butt;stroke-linejoin:miter;stroke-miterlimit:4;stroke-dasharray:none;stroke-dashoffset:0;stroke-opacity:1"
         d="m 212.27214,340.64486 c -0.52989,0.49858 -1.78115,0.39691 -2.28468,0.24197 -0.50353,-0.15493 -2.61595,-4.3651 -1.8544,-3.21855 0.18311,0.27567 0.58974,-0.15997 0.9319,-0.55135 0.21671,-0.24794 0.0808,-1.76505 0.72696,-0.93493 1.0647,1.36774 2.20038,2.79873 2.32979,2.83855 0.50353,0.15494 0.68032,1.12574 0.15043,1.62431 z"
         sodipodi:nodetypes="sssssss" />
      <ellipse
         style="opacity:1;vector-effect:none;fill:#9fff9f;fill-opacity:1;fill-rule:evenodd;stroke:#000000;stroke-width:0.207794;stroke-linecap:butt;stroke-linejoin:miter;stroke-miterlimit:4;stroke-dasharray:none;stroke-dashoffset:0;stroke-opacity:1"
         id="path5840"
         cx="371.92752"
         cy="222.78073"
         rx="0.6765632"
         ry="1.1155908"
         transform="matrix(0.90870736,0.41743376,-0.57994431,0.81465612,0,0)" />
      <path
         style="fill:#008000;stroke:#000000;stroke-width:0.205954;stroke-linecap:butt;stroke-linejoin:miter;stroke-miterlimit:4;stroke-dasharray:none;stroke-opacity:1"
         d="m 209.60725,342.44766 -2.14337,0.44831 c -1.43522,-0.20153 -2.77516,0.41419 -4.21037,0.51057 -1.76594,0.17917 -3.71536,-0.0423 -5.58273,-0.0846 -0.90555,-0.0499 -1.7267,0.0502 -2.50581,0.2251 l -0.76981,0.4695 1.64031,-1.0156 1.85022,0.0458 h 4.52433 l 4.01292,-0.72566 z"
         id="path5847"
         sodipodi:nodetypes="ccccccccccc" />
    </g>
  </g>
</svg>
